HIERARCHY
ROOT Hips
{
    OFFSET 0.000000 0.000000 0.000000
    CHANNELS 6 Xposition Yposition Zposition Zrotation Xrotation Yrotation
    JOINT Spine
    {
        OFFSET -0.000000 14.517291 0.000000
        CHANNELS 3 Zrotation Xrotation Yrotation
        JOINT Spine1
        {
            OFFSET -0.000000 37.558300 0.000000
            CHANNELS 3 Zrotation Xrotation Yrotation
            JOINT Neck
            {
                OFFSET -0.000000 37.404057 3.400369
                CHANNELS 3 Zrotation Xrotation Yrotation
                JOINT Head
                {
                    OFFSET -0.000000 24.785618 -3.540803
                    CHANNELS 3 Zrotation Xrotation Yrotation
                    End Site
                    {
                        OFFSET -0.000000 35.408028 0.000000
                    }
                }
            }
            JOINT LeftShoulder
            {
                OFFSET 6.992933 33.973492 -0.192664
                CHANNELS 3 Zrotation Xrotation Yrotation
                JOINT LeftArm
                {
                    OFFSET 21.527611 0.000000 0.000000
                    CHANNELS 3 Zrotation Xrotation Yrotation
                    JOINT LeftForeArm
                    {
                        OFFSET 56.353916 0.000000 0.000000
                        CHANNELS 3 Zrotation Xrotation Yrotation
                        JOINT LeftHand
                        {
                            OFFSET 47.774071 0.000000 0.000000
                            CHANNELS 3 Zrotation Xrotation Yrotation
                            End Site
                            {
                                OFFSET 26.556021 0.000000 0.000000
                            }
                        }
                    }
                }
            }
            JOINT RightShoulder
            {
                OFFSET -7.065357 33.973492 -0.192664
                CHANNELS 3 Zrotation Xrotation Yrotation
                JOINT RightArm
                {
                    OFFSET -21.527611 0.000000 0.000000
                    CHANNELS 3 Zrotation Xrotation Yrotation
                    JOINT RightForeArm
                    {
                        OFFSET -56.353916 0.000000 0.000000
                        CHANNELS 3 Zrotation Xrotation Yrotation
                        JOINT RightHand
                        {
                            OFFSET -47.774071 0.000000 0.000000
                            CHANNELS 3 Zrotation Xrotation Yrotation
                            End Site
                            {
                                OFFSET -26.556021 0.000000 0.000000
                            }
                        }
                    }
                }
            }
        }
    }
    JOINT LeftUpLeg
    {
        OFFSET 17.704014 0.000000 0.000000
        CHANNELS 3 Zrotation Xrotation Yrotation
        JOINT LeftLeg
        {
            OFFSET -0.000000 -81.181816 0.000000
            CHANNELS 3 Zrotation Xrotation Yrotation
            JOINT LeftFoot
            {
                OFFSET -0.000000 -62.821102 0.000000
                CHANNELS 3 Zrotation Xrotation Yrotation
                JOINT LeftToeBase
                {
                    OFFSET -0.000000 -11.507608 26.556021
                    CHANNELS 3 Zrotation Xrotation Yrotation
                    End Site
                    {
                        OFFSET -0.000000 0.000000 7.081605
                    }
                }
            }
        }
    }
    JOINT RightUpLeg
    {
        OFFSET -17.704014 0.000000 0.000000
        CHANNELS 3 Zrotation Xrotation Yrotation
        JOINT RightLeg
        {
            OFFSET -0.000000 -81.181816 0.000000
            CHANNELS 3 Zrotation Xrotation Yrotation
            JOINT RightFoot
            {
                OFFSET -0.000000 -62.821102 0.000000
                CHANNELS 3 Zrotation Xrotation Yrotation
                JOINT RightToeBase
                {
                    OFFSET -0.000000 -11.507608 26.556021
                    CHANNELS 3 Zrotation Xrotation Yrotation
                    End Site
                    {
                        OFFSET -0.000000 0.000000 7.081605
                    }
                }
            }
        }
    }
}
MOTION
Frames:    14
Frame Time:    0.008333
1.773770    155.714981    -30.908474    -0.470277    -3.465351    -26.547550    1.999721    -1.435581    2.810075    0.368060    1.457134    0.922892    10.426515    1.378198    10.746368    -3.859936    1.421584    9.260883    0.434019    4.904468    -11.134056    -36.071671    0.431382    -56.338852    46.584976    -60.559242    -84.948624    -12.145046    -25.194052    -25.757025    -5.219982    7.348832    -2.609194    38.104702    13.638988    72.137321    3.154140    -11.535004    100.157379    6.491551    -14.498442    12.812977    14.678497    -19.965878    -1.651453    -14.176141    20.559288    7.007196    -5.176968    2.593952    22.278063    0.000000    0.000000    0.000000    -11.290812    7.384802    -3.972654    7.964243    25.655455    0.989043    1.819024    -25.777678    -21.380421    0.000000    0.000000    0.000000    
1.782949    155.712952    -30.906927    -0.469199    -3.471788    -26.556229    2.002401    -1.434400    2.803304    0.363005    1.449887    0.920780    10.424727    1.417568    10.751743    -3.876155    1.379221    9.266891    0.427194    4.923907    -11.123521    -36.098129    0.401323    -56.332119    46.502037    -60.542480    -85.029144    -12.152184    -25.191954    -25.735937    -5.214604    7.355803    -2.586907    38.112816    13.646209    72.114990    3.160981    -11.533000    100.161850    6.497916    -14.503300    12.825857    14.671327    -19.968473    -1.664189    -14.181782    20.576454    7.033268    -5.175188    2.584672    22.275341    0.000000    0.000000    0.000000    -11.310061    7.381390    -3.939734    8.001868    25.663071    0.976678    1.785790    -25.769897    -21.411194    0.000000    0.000000    0.000000    
1.790751    155.711639    -30.908024    -0.473267    -3.475885    -26.570284    1.997041    -1.430983    2.819805    0.373207    1.449143    0.926177    10.428080    1.429324    10.741596    -3.895279    1.352803    9.253592    0.420895    4.932945    -11.131262    -36.108311    0.407892    -56.328384    46.464268    -60.538445    -85.066635    -12.121003    -25.204592    -25.722353    -5.197727    7.368676    -2.618940    38.091557    13.667045    72.126160    3.127288    -11.557528    100.157150    6.495644    -14.490123    12.795775    14.675757    -19.966356    -1.674972    -14.193494    20.586248    7.052523    -5.181396    2.571651    22.284906    0.000000    0.000000    0.000000    -11.316769    7.373116    -3.925969    8.011685    25.681170    0.981514    1.786737    -25.775932    -21.423180    0.000000    0.000000    0.000000    
1.797075    155.708130    -30.907642    -0.480143    -3.488825    -26.579184    2.004309    -1.423159    2.805764    0.366801    1.453434    0.921588    10.408685    1.439153    10.750771    -3.877877    1.331847    9.268275    0.406208    4.928639    -11.113123    -36.111816    0.413794    -56.308659    46.431255    -60.539623    -85.095451    -12.097162    -25.226545    -25.714153    -5.194187    7.378726    -2.600649    38.097321    13.662225    72.121712    3.152811    -11.539896    100.160828    6.475741    -14.502930    12.826462    14.672954    -19.955608    -1.668082    -14.184141    20.602377    7.014135    -5.196158    2.549910    22.308662    0.000000    0.000000    0.000000    -11.324151    7.380606    -3.908857    8.023190    25.692221    1.010559    1.748390    -25.780178    -21.458332    0.000000    0.000000    0.000000    
1.802903    155.704620    -30.909941    -0.484864    -3.489927    -26.595627    1.997406    -1.426933    2.815336    0.380840    1.459883    0.924559    10.405842    1.457150    10.748611    -3.888761    1.292854    9.265358    0.402354    4.930925    -11.111800    -36.123520    0.409016    -56.304958    46.411774    -60.531788    -85.113335    -12.085747    -25.223049    -25.705624    -5.185767    7.386503    -2.622473    38.074055    13.680297    72.134636    3.142540    -11.566081    100.158020    6.504386    -14.513183    12.834065    14.683885    -19.950354    -1.679387    -14.203937    20.598185    7.044101    -5.196307    2.545430    22.316414    0.000000    0.000000    0.000000    -11.324670    7.375216    -3.896207    8.017610    25.697958    1.011848    1.749997    -25.786577    -21.435860    0.000000    0.000000    0.000000    
1.809335    155.701263    -30.908844    -0.487756    -3.498830    -26.607248    1.989667    -1.430890    2.818877    0.396967    1.474934    0.925502    10.403737    1.464138    10.754140    -3.909651    1.269041    9.268534    0.389462    4.938629    -11.110136    -36.117748    0.404223    -56.301777    46.424046    -60.533653    -85.094086    -12.058093    -25.234089    -25.707901    -5.197903    7.383441    -2.628473    38.081955    13.686179    72.124466    3.150044    -11.550939    100.160446    6.525432    -14.503211    12.856875    14.684459    -19.941935    -1.680255    -14.209549    20.607229    7.044127    -5.189446    2.531954    22.318003    0.000000    0.000000    0.000000    -11.335046    7.381155    -3.862717    8.041236    25.698196    0.972413    1.759424    -25.797844    -21.417145    0.000000    0.000000    0.000000    
1.814691    155.696884    -30.908792    -0.492188    -3.503615    -26.615622    1.980679    -1.440867    2.817052    0.417480    1.505381    0.924490    10.386008    1.451146    10.763176    -3.909170    1.240838    9.278269    0.380295    4.922060    -11.097968    -36.116096    0.412351    -56.298500    46.464626    -60.544167    -85.056198    -12.064013    -25.237551    -25.701912    -5.212681    7.371156    -2.648107    38.093262    13.689178    72.131859    3.175673    -11.517293    100.168320    6.501238    -14.504136    12.835647    14.688337    -19.936840    -1.682889    -14.219738    20.610254    7.064199    -5.197743    2.519100    22.324869    0.000000    0.000000    0.000000    -11.334079    7.388021    -3.878931    8.021729    25.694738    1.006943    1.761891    -25.807678    -21.433550    0.000000    0.000000    0.000000    
1.821945    155.693832    -30.905842    -0.498861    -3.508983    -26.623585    1.989477    -1.440433    2.815658    0.410156    1.503211    0.924071    10.406298    1.477130    10.779726    -3.945585    1.203875    9.289152    0.374845    4.936576    -11.090900    -36.112198    0.407976    -56.295170    46.444065    -60.539673    -85.071983    -12.052897    -25.241362    -25.709772    -5.204449    7.392022    -2.654476    38.100113    13.676017    72.134781    3.205288    -11.472499    100.163170    6.487919    -14.495175    12.838162    14.688612    -19.929325    -1.683297    -14.217668    20.609936    7.079295    -5.185962    2.519390    22.318167    0.000000    0.000000    0.000000    -11.335439    7.396773    -3.874612    8.018372    25.690718    1.021125    1.756946    -25.806608    -21.431183    0.000000    0.000000    0.000000    
1.828675    155.690903    -30.904957    -0.497746    -3.510902    -26.631935    1.982414    -1.445380    2.828080    0.409887    1.508991    0.928251    10.410914    1.485243    10.775791    -3.946053    1.163504    9.283725    0.388616    4.929546    -11.102154    -36.126217    0.427149    -56.285877    46.430782    -60.536224    -85.069443    -12.033168    -25.242062    -25.855360    -5.198103    7.384057    -2.685024    38.106796    13.688372    72.124718    3.203523    -11.446007    100.165268    6.487681    -14.468082    12.821509    14.684716    -19.933283    -1.670058    -14.215536    20.628609    7.101951    -5.173354    2.511362    22.291687    0.000000    0.000000    0.000000    -11.346590    7.395554    -3.852069    8.039285    25.689516    1.020604    1.749276    -25.818922    -21.447929    0.000000    0.000000    0.000000    
1.835483    155.689819    -30.905968    -0.499651    -3.508639    -26.639391    1.981839    -1.455081    2.823375    0.413623    1.518339    0.926502    10.406864    1.481455    10.781633    -3.945263    1.145644    9.289497    0.385602    4.928304    -11.092840    -36.115398    0.431934    -56.285507    46.466000    -60.552372    -85.062431    -12.039566    -25.250433    -25.705448    -5.201921    7.380830    -2.685395    38.115967    13.685970    72.116875    3.224051    -11.415570    100.170364    6.482666    -14.462188    12.827119    14.687845    -19.933758    -1.674083    -14.220423    20.628378    7.110272    -5.174178    2.504951    22.292355    0.000000    0.000000    0.000000    -11.343624    7.385939    -3.848667    8.027039    25.703293    1.022349    1.768256    -25.827433    -21.440147    0.000000    0.000000    0.000000    
1.845170    155.688004    -30.907927    -0.503939    -3.508784    -26.639101    1.994668    -1.458512    2.816053    0.403720    1.527478    0.924074    10.414657    1.472588    10.794909    -3.963731    1.131194    9.298521    0.383054    4.921906    -11.083109    -36.102806    0.442342    -56.283726    46.530258    -60.564091    -84.997581    -12.069370    -25.245943    -25.704212    -5.212083    7.396016    -2.702987    38.117168    13.689910    72.140144    3.220508    -11.411491    100.161606    6.499230    -14.451240    12.833820    14.689752    -19.940372    -1.684548    -14.231170    20.642078    7.111549    -5.165248    2.496915    22.298449    0.000000    0.000000    0.000000    -11.345237    7.383749    -3.841743    8.035643    25.704613    1.000991    1.773670    -25.824537    -21.417664    0.000000    0.000000    0.000000    
1.849806    155.683960    -30.907429    -0.507939    -3.509330    -26.645525    1.991491    -1.450439    2.811453    0.409420    1.503904    0.922670    10.401500    1.477379    10.795206    -3.943668    1.125562    9.303514    0.377215    4.928475    -11.082943    -36.120491    0.426165    -56.271641    46.421329    -60.547264    -85.114433    -12.046786    -25.250854    -25.670982    -5.215720    7.412320    -2.691187    38.129925    13.685234    72.120399    3.232254    -11.386669    100.171669    6.507094    -14.439307    12.846817    14.692131    -19.942211    -1.660327    -14.220415    20.656279    7.097314    -5.162959    2.495460    22.294863    0.000000    0.000000    0.000000    -11.341546    7.377471    -3.835560    8.032842    25.719086    0.996374    1.766239    -25.831114    -21.420996    0.000000    0.000000    0.000000    
1.857586    155.681641    -30.911371    -0.511511    -3.504630    -26.645954    1.985907    -1.461334    2.811731    0.431302    1.514170    0.922367    10.363201    1.486081    10.793170    -3.914866    1.077224    9.309589    0.369688    4.917319    -11.083004    -36.118103    0.432563    -56.275673    46.436359    -60.547237    -85.097801    -12.059455    -25.244101    -25.678982    -5.238649    7.419664    -2.710665    38.133492    13.684548    72.135956    3.237513    -11.381043    100.169449    6.512748    -14.438749    12.850073    14.697273    -19.954548    -1.671407    -14.228183    20.667473    7.109292    -5.149992    2.497303    22.293150    0.000000    0.000000    0.000000    -11.342697    7.370039    -3.814879    8.051656    25.723795    1.011869    1.733211    -25.828506    -21.453859    0.000000    0.000000    0.000000    
1.864960    155.677765    -30.912828    -0.516538    -3.507534    -26.648140    2.000869    -1.469600    2.801347    0.406303    1.535903    0.919085    10.402690    1.478839    10.807560    -3.963888    1.065371    9.311629    0.381327    4.902498    -11.066152    -36.109489    0.441176    -56.282616    46.606007    -60.557671    -84.977158    -12.071235    -25.179592    -25.539471    -5.240457    7.396875    -2.698256    38.143841    13.692431    72.126541    3.227639    -11.375269    100.165527    6.472020    -14.426473    12.841528    14.699697    -19.954432    -1.667825    -14.229045    20.671453    7.117136    -5.156942    2.495893    22.282101    0.000000    0.000000    0.000000    -11.342145    7.373520    -3.811217    8.053978    25.724051    1.000851    1.740021    -25.832804    -21.439608    0.000000    0.000000    0.000000    
